<?xml version="1.0" encoding="UTF-8"?>
<svg width="41px" height="41px" viewBox="0 0 41 41" version="1.1" xmlns="http://www.w3.org/2000/svg" xmlns:xlink="http://www.w3.org/1999/xlink">
    <!-- Generator: Sketch 43.1 (39012) - http://www.bohemiancoding.com/sketch -->
    <title>tw</title>
    <desc>Created with Sketch.</desc>
    <defs></defs>
    <g id="Page-1" stroke="none" stroke-width="1" fill="none" fill-rule="evenodd">
        <g id="tw" transform="translate(1.000000, 1.000000)">
            <path d="M38.47,5.15 L38.47,34.23 C38.464526,36.7809084 36.4008906,38.8490106 33.85,38.86 L5.27,38.86 C2.72299597,38.849045 0.660955008,36.787004 0.65,34.24 L0.65,5.15 C0.660955008,2.60299597 2.72299597,0.540955008 5.27,0.53 L33.85,0.53" id="Shape" stroke="#FFFFFF" stroke-width="2" stroke-linecap="round" stroke-linejoin="round"></path>
            <circle id="Oval" fill="#FFFFFF" fill-rule="nonzero" cx="38.52" cy="1.82" r="1"></circle>
            <path d="M13.49,20.72 C12.2797372,20.2837424 11.1458178,19.6594118 10.13,18.87 C9.04108467,17.9091801 8.3850582,16.5502681 8.31,15.1 C8.31,14.52 8.11,11.6 9.09,11.67 C9.25,11.67 9.39,11.82 9.49,11.94 C9.74412201,12.2443872 10.0145167,12.5348112 10.3,12.81 L10.3,12.81 C12.6746431,15.1057298 15.8905382,16.3211862 19.19,16.17 C18.87197,14.3048379 19.6472226,12.4218762 21.1862971,11.3213208 C22.7253717,10.2207654 24.7578556,10.095982 26.42,11 C26.9059062,11.3379939 27.4380612,11.6040713 28,11.79 C28.407419,11.8550609 28.822581,11.8550609 29.23,11.79 L32.23,11.45 C31.2093737,12.6430842 30.3487767,13.9642351 29.67,15.38 C29.2002003,16.7226123 28.8881047,18.115297 28.74,19.53 C28.1219517,22.7085453 26.2656393,25.5110014 23.58,27.32 L23.58,27.32 C23.2030845,27.5740334 22.8087795,27.80126 22.4,28 L22.4,28 C21.8499326,28.3085214 21.2745057,28.5694708 20.68,28.78 L20.68,28.78 L20.13,28.97 L19.52,29.14 C16.6796016,29.7776998 13.7281641,29.7297089 10.91,29 L9.74,28.73 L8.37,28.35 C10.0509118,28.2527712 11.6836525,27.7519725 13.13,26.89 C13.42,26.72 13.72,26.48 13.68,26.16 C13.6386425,25.927825 13.5004716,25.7242048 13.3,25.6 C12.2575712,24.685537 11.357635,23.6204439 10.63,22.44" id="Shape" stroke="#FFFFFF" stroke-width="2" stroke-linecap="round" stroke-linejoin="round"></path>
        </g>
    </g>
</svg>