<?xml version="1.0" encoding="UTF-8"?>
<svg width="41px" height="41px" viewBox="0 0 41 41" version="1.1" xmlns="http://www.w3.org/2000/svg" xmlns:xlink="http://www.w3.org/1999/xlink">
    <!-- Generator: Sketch 43.1 (39012) - http://www.bohemiancoding.com/sketch -->
    <title>fb</title>
    <desc>Created with Sketch.</desc>
    <defs></defs>
    <g id="Page-1" stroke="none" stroke-width="1" fill="none" fill-rule="evenodd">
        <g id="fb" transform="translate(1.000000, 1.000000)">
            <path d="M18.54,39 L5.22,39 C2.6690916,38.994526 0.600989447,36.9308906 0.59,34.38 L0.59,5.28 C0.59550012,2.7252033 2.6652033,0.65550012 5.22,0.65 L33.8,0.65" id="Shape" stroke="#FFFFFF" stroke-width="2" stroke-linecap="round" stroke-linejoin="round"></path>
            <path d="M38.43,5.28 L38.43,34.36 C38.4300059,36.9187011 36.3586951,38.9944856 33.8,39 L24.8,39" id="Shape" stroke="#FFFFFF" stroke-width="2" stroke-linecap="round" stroke-linejoin="round"></path>
            <circle id="Oval" fill="#FFFFFF" fill-rule="nonzero" cx="38.48" cy="1.95" r="1"></circle>
            <path d="M18.54,39 L18.54,26.51 L14.14,26.51 L14.14,20.57 L18.54,20.57 L18.54,14.84 C18.54,11.5262915 21.2262915,8.84 24.54,8.84 L30.77,8.84 L30.77,14.49 L26.21,14.49 C25.8131013,14.489853 25.433009,14.6502063 25.1561513,14.9345976 C24.8792936,15.2189889 24.7292,15.6032483 24.74,16 L24.74,20.54 L30.74,20.54 L30.74,26.54 L24.74,26.54 L24.74,39" id="Shape" stroke="#FFFFFF" stroke-width="2" stroke-linecap="round" stroke-linejoin="round"></path>
        </g>
    </g>
</svg>